<svg xmlns="http://www.w3.org/2000/svg" viewBox="0 0 424 120"><g transform="translate(60,60) scale(1)"><circle r="44" fill="none" stroke="#0d8a68" stroke-width="2.4"/><line x1="-30" y1="10" x2="30" y2="-10" stroke="#081a22" stroke-width="4" stroke-linecap="round"/><line x1="0" y1="0" x2="0" y2="26" stroke="#081a22" stroke-width="2.6"/><line x1="-11" y1="26" x2="11" y2="26" stroke="#081a22" stroke-width="2.6" stroke-linecap="round"/><circle cy="0" r="6" fill="#c7a65a"/><circle cx="30" cy="-10" r="3.4" fill="#0d8a68"/></g><path d="M129.9775390625 62.0H143.8642578125V58.2939453125H134.4453125V40.173828125H129.9775390625ZM158.408203125 40.173828125H153.9404296875V62.0H158.408203125ZM169.36328125 62.0H178.5771484375C183.4990234375 62.0 186.0771484375 59.4365234375 186.0771484375 55.9794921875C186.0771484375 52.7421875 183.7626953125 50.80859375 181.3017578125 50.69140625V50.4716796875C183.54296875 49.9736328125 185.2275390625 48.376953125 185.2275390625 45.7841796875C185.2275390625 42.517578125 182.810546875 40.173828125 178.0205078125 40.173828125H169.36328125ZM173.8310546875 58.3232421875V52.4052734375H177.8154296875C180.056640625 52.4052734375 181.4775390625 53.7236328125 181.4775390625 55.5546875C181.4775390625 57.2099609375 180.3203125 58.3232421875 177.6982421875 58.3232421875ZM173.8310546875 49.34375V43.8212890625H177.44921875C179.5439453125 43.8212890625 180.701171875 44.9052734375 180.701171875 46.501953125C180.701171875 48.259765625 179.2802734375 49.34375 177.361328125 49.34375ZM196.2119140625 62.0H200.6796875V54.20703125H204.1953125L208.35546875 62.0H213.306640625L208.6630859375 53.4892578125C211.1533203125 52.419921875 212.5302734375 50.2666015625 212.5302734375 47.2783203125C212.5302734375 42.986328125 209.6884765625 40.173828125 204.72265625 40.173828125H196.2119140625ZM200.6796875 50.5888671875V43.865234375H203.8876953125C206.626953125 43.865234375 207.916015625 45.0810546875 207.916015625 47.2783203125C207.916015625 49.4609375 206.626953125 50.5888671875 203.90234375 50.5888671875ZM221.654296875 62.0H226.5908203125L228.216796875 56.931640625H235.9658203125L237.650390625 62.0H242.6162109375L234.9697265625 40.173828125H229.1103515625ZM229.330078125 53.4306640625 229.9599609375 51.4677734375C230.619140625 49.2705078125 231.263671875 46.677734375 231.99609375 43.6748046875C232.7578125 46.6484375 233.4462890625 49.2265625 234.1494140625 51.4677734375L234.80859375 53.4306640625ZM275.9521484375 62.29296875C281.4599609375 62.29296875 284.8583984375 58.5869140625 285.3564453125 54.529296875H280.830078125C280.390625 56.90234375 278.515625 58.3232421875 276.025390625 58.3232421875C272.65625 58.3232421875 270.3564453125 55.8330078125 270.3564453125 51.1015625C270.3564453125 46.47265625 272.626953125 43.8505859375 276.0400390625 43.8505859375C278.5302734375 43.8505859375 280.4052734375 45.2568359375 280.8154296875 47.6298828125H285.341796875C284.697265625 42.72265625 280.91796875 39.880859375 275.9521484375 39.880859375C270.1953125 39.880859375 265.8154296875 43.9677734375 265.8154296875 51.1015625C265.8154296875 58.19140625 270.13671875 62.29296875 275.9521484375 62.29296875ZM295.6083984375 62.0H300.076171875V54.20703125H303.591796875L307.751953125 62.0H312.703125L308.0595703125 53.4892578125C310.5498046875 52.419921875 311.9267578125 50.2666015625 311.9267578125 47.2783203125C311.9267578125 42.986328125 309.0849609375 40.173828125 304.119140625 40.173828125H295.6083984375ZM300.076171875 50.5888671875V43.865234375H303.2841796875C306.0234375 43.865234375 307.3125 45.0810546875 307.3125 47.2783203125C307.3125 49.4609375 306.0234375 50.5888671875 303.298828125 50.5888671875ZM322.310546875 62.0H336.9443359375V58.2939453125H326.7783203125V52.80078125H336.1533203125V49.1533203125H326.7783203125V43.8798828125H336.9150390625V40.173828125H322.310546875ZM355.208984375 62.0C361.8447265625 62.0 365.84375 57.8984375 365.84375 51.072265625C365.84375 44.275390625 361.8447265625 40.173828125 355.2822265625 40.173828125H347.533203125V62.0ZM352.0009765625 58.1474609375V44.0263671875H355.0185546875C359.193359375 44.0263671875 361.390625 46.1943359375 361.390625 51.072265625C361.390625 55.9794921875 359.193359375 58.1474609375 354.9892578125 58.1474609375ZM380.666015625 40.173828125H376.1982421875V62.0H380.666015625ZM390.7421875 43.8798828125H397.421875V62.0H401.904296875V43.8798828125H408.5693359375V40.173828125H390.7421875Z" fill="#081a22"/><path d="M130.88623046875 88.0H133.9638671875C135.822265625 88.0 136.66552734375 87.07080078125 136.66552734375 85.8408203125C136.66552734375 84.61083984375 135.80078125 83.91259765625 135.00048828125 83.86962890625V83.7890625C135.74169921875 83.6064453125 136.35400390625 83.09619140625 136.35400390625 82.09716796875C136.35400390625 80.91552734375 135.5322265625 79.9970703125 133.8349609375 79.9970703125H130.88623046875ZM132.11083984375 86.947265625V84.40673828125H133.888671875C134.8447265625 84.40673828125 135.45166015625 85.0244140625 135.45166015625 85.78173828125C135.45166015625 86.44775390625 134.98974609375 86.947265625 133.84033203125 86.947265625ZM132.11083984375 83.46142578125V81.04443359375H133.7490234375C134.69970703125 81.04443359375 135.15087890625 81.5439453125 135.15087890625 82.19921875C135.15087890625 82.96728515625 134.52783203125 83.46142578125 133.716796875 83.46142578125ZM144.94677734375 88.0H146.17138671875V84.81494140625L149.109375 79.9970703125H147.68603515625L146.1982421875 82.54833984375C145.9619140625 82.951171875 145.7685546875 83.31103515625 145.56982421875 83.79443359375C145.37109375 83.32177734375 145.177734375 82.96728515625 144.9306640625 82.54833984375L143.4267578125 79.9970703125H141.998046875L144.94677734375 84.81494140625ZM162.2021484375 88.0H167.05224609375V86.947265625H163.4267578125V79.9970703125H162.2021484375ZM174.146484375 79.9970703125H172.921875V88.0H174.146484375ZM180.4189453125 88.0H183.49658203125C185.35498046875 88.0 186.1982421875 87.07080078125 186.1982421875 85.8408203125C186.1982421875 84.61083984375 185.33349609375 83.91259765625 184.533203125 83.86962890625V83.7890625C185.2744140625 83.6064453125 185.88671875 83.09619140625 185.88671875 82.09716796875C185.88671875 80.91552734375 185.06494140625 79.9970703125 183.36767578125 79.9970703125H180.4189453125ZM181.6435546875 86.947265625V84.40673828125H183.42138671875C184.37744140625 84.40673828125 184.984375 85.0244140625 184.984375 85.78173828125C184.984375 86.44775390625 184.5224609375 86.947265625 183.373046875 86.947265625ZM181.6435546875 83.46142578125V81.04443359375H183.28173828125C184.232421875 81.04443359375 184.68359375 81.5439453125 184.68359375 82.19921875C184.68359375 82.96728515625 184.060546875 83.46142578125 183.24951171875 83.46142578125ZM192.14306640625 88.0H193.36767578125V84.97607421875H195.00048828125C195.02197265625 84.97607421875 195.048828125 84.97607421875 195.0703125 84.97607421875L196.6923828125 88.0H198.08349609375L196.32177734375 84.7666015625C197.2939453125 84.4013671875 197.78271484375 83.5849609375 197.78271484375 82.5107421875C197.78271484375 81.03369140625 196.8642578125 79.9970703125 195.01123046875 79.9970703125H192.14306640625ZM193.36767578125 83.9287109375V81.04443359375H194.87158203125C196.05322265625 81.04443359375 196.5419921875 81.6083984375 196.5419921875 82.5107421875C196.5419921875 83.40771484375 196.05322265625 83.9287109375 194.88232421875 83.9287109375ZM203.158203125 88.0H204.48486328125L205.19921875 85.88916015625H208.3466796875L209.08251953125 88.0H210.4091796875L207.5087890625 79.9970703125H206.0048828125ZM205.54833984375 84.86865234375 205.994140625 83.54736328125C206.19287109375 82.93505859375 206.43994140625 82.1025390625 206.75146484375 80.95849609375C207.068359375 82.091796875 207.31005859375 82.908203125 207.52490234375 83.54736328125L207.98681640625 84.86865234375ZM223.501953125 88.0H228.35205078125V86.947265625H224.7265625V79.9970703125H223.501953125ZM234.2216796875 88.0H239.2919921875V86.947265625H235.4462890625V84.48193359375H238.9912109375V83.4345703125H235.4462890625V81.0498046875H239.259765625V79.9970703125H234.2216796875ZM248.71728515625 88.107421875C250.65625 88.107421875 252.05810546875 86.83984375 252.05810546875 84.81494140625V83.896484375H248.89990234375V84.90625H250.8603515625C250.83349609375 86.1845703125 249.990234375 86.990234375 248.72265625 86.990234375C247.31005859375 86.990234375 246.28955078125 85.9267578125 246.28955078125 83.99853515625C246.28955078125 82.06494140625 247.326171875 81.0068359375 248.67431640625 81.0068359375C249.72705078125 81.0068359375 250.44140625 81.59228515625 250.7314453125 82.52685546875H251.98828125C251.7197265625 80.96923828125 250.3876953125 79.8896484375 248.66357421875 79.8896484375C246.59033203125 79.8896484375 245.07568359375 81.447265625 245.07568359375 84.00390625C245.07568359375 86.53369140625 246.5419921875 88.107421875 248.71728515625 88.107421875ZM257.4658203125 88.0H258.79248046875L259.5068359375 85.88916015625H262.654296875L263.39013671875 88.0H264.716796875L261.81640625 79.9970703125H260.3125ZM259.85595703125 84.86865234375 260.3017578125 83.54736328125C260.50048828125 82.93505859375 260.74755859375 82.1025390625 261.05908203125 80.95849609375C261.3759765625 82.091796875 261.61767578125 82.908203125 261.83251953125 83.54736328125L262.29443359375 84.86865234375ZM270.376953125 88.0H275.22705078125V86.947265625H271.6015625V79.9970703125H270.376953125ZM291.21484375 88.13427734375C293.0947265625 88.13427734375 294.1796875 87.14599609375 294.1796875 85.787109375C294.1796875 84.34228515625 292.89599609375 83.79443359375 291.87548828125 83.53125L291.0966796875 83.3271484375C290.484375 83.166015625 289.6572265625 82.88134765625 289.6572265625 82.1240234375C289.6572265625 81.447265625 290.26953125 80.953125 291.24169921875 80.953125C292.1494140625 80.953125 292.79931640625 81.3720703125 292.8798828125 82.1025390625H294.072265625C294.03466796875 80.82958984375 292.912109375 79.8896484375 291.2685546875 79.8896484375C289.6572265625 79.8896484375 288.4326171875 80.80810546875 288.4326171875 82.19384765625C288.4326171875 83.28955078125 289.2060546875 83.9609375 290.5166015625 84.31005859375L291.451171875 84.56787109375C292.310546875 84.798828125 292.97119140625 85.07275390625 292.97119140625 85.77099609375C292.97119140625 86.54443359375 292.224609375 87.06005859375 291.20947265625 87.06005859375C290.28564453125 87.06005859375 289.51220703125 86.65185546875 289.4423828125 85.7763671875H288.21240234375C288.28759765625 87.2373046875 289.41552734375 88.13427734375 291.21484375 88.13427734375ZM299.52294921875 88.0H300.849609375L301.56396484375 85.88916015625H304.71142578125L305.447265625 88.0H306.77392578125L303.87353515625 79.9970703125H302.36962890625ZM301.9130859375 84.86865234375 302.35888671875 83.54736328125C302.5576171875 82.93505859375 302.8046875 82.1025390625 303.1162109375 80.95849609375C303.43310546875 82.091796875 303.6748046875 82.908203125 303.8896484375 83.54736328125L304.3515625 84.86865234375Z" fill="#0d8a68"/></svg>